<?xml version="1.0" standalone="no"?>
<!DOCTYPE svg PUBLIC "-//W3C//DTD SVG 20010904//EN"
 "http://www.w3.org/TR/2001/REC-SVG-20010904/DTD/svg10.dtd">
<svg version="1.0" xmlns="http://www.w3.org/2000/svg"
 width="351.000000pt" height="130.000000pt" viewBox="0 0 351.000000 186.000000"
 preserveAspectRatio="xMidYMid meet">

<g transform="translate(0.000000,186.000000) scale(0.100000,-0.100000)"
fill="#ff0000" stroke="none">
<path d="M1980 1756 c-407 -178 -983 -426 -1219 -527 -135 -57 -161 -73 -161
-98 0 -71 34 -67 246 24 96 41 185 75 198 75 49 0 74 -65 37 -96 -10 -9 -68
-38 -127 -63 -98 -42 -109 -50 -112 -75 -6 -52 42 -73 98 -41 14 8 37 14 51
15 54 0 81 -75 37 -104 -13 -8 -138 -63 -278 -122 -140 -59 -261 -111 -267
-117 -22 -16 -15 -55 12 -73 24 -16 31 -14 241 75 118 50 225 91 238 91 27 0
56 -29 56 -57 0 -28 -35 -55 -113 -88 -75 -30 -97 -57 -78 -92 6 -11 19 -23
30 -26 11 -3 106 33 231 87 189 81 215 95 241 130 16 22 30 35 31 30 2 -5 3
-97 3 -204 l0 -195 90 0 90 0 3 43 3 42 -45 0 -46 0 0 60 0 60 46 0 45 0 -3
43 -3 42 -45 0 -45 0 0 50 0 50 48 3 47 3 0 39 0 39 -70 3 -70 3 24 35 c21 32
25 51 32 180 l7 145 24 -125 c13 -69 26 -135 29 -147 4 -19 11 -23 45 -23 23
0 41 5 44 13 2 6 14 82 27 167 l23 155 5 -170 5 -170 38 -3 37 -3 0 240 0 241
-69 0 -68 0 -12 -77 c-23 -141 -31 -186 -34 -190 -2 -1 -12 57 -23 130 -19
131 -19 132 -47 135 -15 2 -27 7 -27 11 0 4 57 32 128 61 334 141 386 174 434
275 26 56 38 126 21 124 -5 0 -42 -15 -83 -33z m-583 -681 c-2 -176 1 -217 12
-224 11 -7 7 -12 -15 -24 -55 -28 -243 -107 -254 -107 -8 0 -10 56 -8 193 l3
194 30 49 c26 42 43 55 115 92 46 23 92 42 102 42 16 0 17 -16 15 -215z"/>
<path d="M1830 1085 l0 -235 95 0 95 0 0 40 0 40 -50 0 -50 0 0 60 0 60 45 0
45 0 0 40 0 40 -45 0 -45 0 0 55 0 55 45 0 45 0 0 40 0 40 -90 0 -90 0 0 -235z"/>
<path d="M2080 1085 l0 -235 83 0 c132 1 137 10 137 243 0 171 0 175 -25 201
-22 24 -30 26 -110 26 l-85 0 0 -235z m125 0 c0 -153 -1 -160 -20 -160 -19 0
-20 8 -23 150 -1 82 0 155 3 163 3 7 13 12 22 10 16 -3 18 -19 18 -163z"/>
<path d="M660 946 c-111 -46 -121 -54 -118 -88 6 -60 44 -60 168 0 43 21 56
33 58 53 3 27 -20 59 -41 59 -7 -1 -37 -11 -67 -24z"/>
<path d="M2785 782 c-54 -18 -75 -50 -75 -112 0 -51 17 -84 70 -135 66 -64 87
-118 55 -145 -23 -19 -45 5 -45 51 0 39 0 39 -40 39 l-40 0 0 -49 c0 -66 13
-97 49 -116 60 -30 130 -15 156 36 21 40 22 126 2 164 -8 17 -41 55 -71 85
-63 61 -75 100 -31 100 20 0 25 -5 25 -25 0 -23 4 -25 45 -25 51 0 57 13 31
75 -20 46 -81 73 -131 57z"/>
<path d="M3040 772 c-40 -19 -60 -53 -60 -99 0 -50 15 -78 80 -148 55 -59 61
-69 58 -103 -2 -29 -7 -37 -23 -37 -17 0 -20 8 -23 48 l-3 47 -46 0 -45 0 4
-60 c4 -49 9 -66 31 -88 23 -23 36 -27 83 -27 48 0 59 4 79 27 28 32 40 109
25 158 -6 20 -35 60 -70 95 -65 66 -81 108 -42 113 18 3 22 -1 22 -22 0 -24 3
-26 45 -26 44 0 45 1 45 33 0 42 -24 75 -66 93 -43 18 -52 18 -94 -4z"/>
<path d="M1620 761 c0 -10 7 -56 16 -102 9 -46 13 -102 10 -124 -7 -54 -22
-152 -31 -197 -7 -38 -7 -38 26 -38 19 0 39 4 46 8 6 4 17 44 24 90 7 45 15
82 19 82 7 0 30 -113 30 -148 0 -22 18 -32 61 -32 35 0 35 0 8 121 -22 103
-25 167 -10 226 5 21 12 59 16 86 l6 47 -44 0 -44 0 -7 -70 c-4 -40 -11 -68
-17 -65 -5 4 -9 18 -9 33 0 15 -3 44 -6 65 -6 36 -8 37 -50 37 -36 0 -44 -3
-44 -19z"/>
<path d="M1910 540 l0 -240 40 0 39 0 3 98 3 97 30 3 c59 5 75 13 90 42 20 39
20 152 0 191 -20 38 -50 49 -136 49 l-69 0 0 -240z m132 123 c11 -41 -6 -86
-30 -81 -12 2 -18 15 -20 47 -2 24 -1 50 2 58 10 24 39 10 48 -24z"/>
<path d="M2190 539 l0 -240 43 3 42 3 3 113 c1 61 6 112 10 112 25 -1 31 -22
34 -120 l3 -105 40 0 40 0 3 100 c2 85 0 103 -17 126 -19 26 -19 26 0 42 15
14 19 30 19 87 0 62 -3 74 -25 95 -22 23 -32 25 -110 25 l-85 0 0 -241z m136
135 c8 -31 -10 -74 -31 -74 -11 0 -15 12 -15 50 0 43 3 50 20 50 13 0 22 -9
26 -26z"/>
<path d="M2472 543 l3 -238 90 0 90 0 3 43 3 42 -50 0 -51 0 0 60 0 60 45 0
45 0 0 40 0 40 -45 0 -45 0 0 55 0 55 50 0 50 0 0 40 0 40 -95 0 -95 0 2 -237z"/>
<path d="M703 484 c-45 -19 -59 -48 -38 -80 18 -28 38 -30 88 -9 50 21 60 52
27 85 -23 23 -33 24 -77 4z"/>
<path d="M515 405 c-16 -7 -61 -25 -98 -40 -83 -34 -106 -65 -71 -99 23 -24
52 -20 151 22 105 44 123 56 123 86 0 45 -45 58 -105 31z"/>
</g>
</svg>
